<mxfile host="app.diagrams.net" modified="2023-06-28T02:43:59.247Z" agent="Mozilla/5.0 (Windows NT 10.0; Win64; x64) AppleWebKit/537.36 (KHTML, like Gecko) Chrome/114.0.0.0 Safari/537.36" etag="RoqIQsNzJijv9e6CsZp8" version="21.5.0" type="github">
  <diagram id="C5RBs43oDa-KdzZeNtuy" name="Page-1">
    <mxGraphModel dx="2048" dy="1912" grid="1" gridSize="10" guides="1" tooltips="1" connect="1" arrows="1" fold="1" page="1" pageScale="1" pageWidth="827" pageHeight="1169" math="0" shadow="0">
      <root>
        <mxCell id="WIyWlLk6GJQsqaUBKTNV-0" />
        <mxCell id="WIyWlLk6GJQsqaUBKTNV-1" parent="WIyWlLk6GJQsqaUBKTNV-0" />
        <mxCell id="2nOXhg0twaqO6Eg3gHm--19" value="" style="edgeStyle=orthogonalEdgeStyle;rounded=0;orthogonalLoop=1;jettySize=auto;html=1;" edge="1" parent="WIyWlLk6GJQsqaUBKTNV-1" source="2nOXhg0twaqO6Eg3gHm--1" target="2nOXhg0twaqO6Eg3gHm--17">
          <mxGeometry relative="1" as="geometry" />
        </mxCell>
        <mxCell id="2nOXhg0twaqO6Eg3gHm--1" value="物资发运审核" style="strokeWidth=2;html=1;shape=mxgraph.flowchart.start_1;whiteSpace=wrap;" vertex="1" parent="WIyWlLk6GJQsqaUBKTNV-1">
          <mxGeometry x="340" width="100" height="60" as="geometry" />
        </mxCell>
        <mxCell id="2nOXhg0twaqO6Eg3gHm--7" value="no" style="edgeStyle=orthogonalEdgeStyle;rounded=0;orthogonalLoop=1;jettySize=auto;html=1;" edge="1" parent="WIyWlLk6GJQsqaUBKTNV-1" source="2nOXhg0twaqO6Eg3gHm--4" target="2nOXhg0twaqO6Eg3gHm--6">
          <mxGeometry relative="1" as="geometry">
            <Array as="points">
              <mxPoint x="540" y="270" />
              <mxPoint x="540" y="270" />
            </Array>
          </mxGeometry>
        </mxCell>
        <mxCell id="2nOXhg0twaqO6Eg3gHm--12" value="yes" style="edgeStyle=orthogonalEdgeStyle;rounded=0;orthogonalLoop=1;jettySize=auto;html=1;" edge="1" parent="WIyWlLk6GJQsqaUBKTNV-1" source="2nOXhg0twaqO6Eg3gHm--4" target="2nOXhg0twaqO6Eg3gHm--11">
          <mxGeometry relative="1" as="geometry" />
        </mxCell>
        <mxCell id="2nOXhg0twaqO6Eg3gHm--4" value="当前用户是否属于【物资三审审核角色】" style="rhombus;whiteSpace=wrap;html=1;strokeWidth=2;" vertex="1" parent="WIyWlLk6GJQsqaUBKTNV-1">
          <mxGeometry x="325" y="220" width="130" height="100" as="geometry" />
        </mxCell>
        <mxCell id="2nOXhg0twaqO6Eg3gHm--6" value="不展示审核按钮" style="whiteSpace=wrap;html=1;strokeWidth=2;" vertex="1" parent="WIyWlLk6GJQsqaUBKTNV-1">
          <mxGeometry x="560" y="240" width="120" height="60" as="geometry" />
        </mxCell>
        <mxCell id="2nOXhg0twaqO6Eg3gHm--16" value="" style="edgeStyle=orthogonalEdgeStyle;rounded=0;orthogonalLoop=1;jettySize=auto;html=1;" edge="1" parent="WIyWlLk6GJQsqaUBKTNV-1" source="2nOXhg0twaqO6Eg3gHm--11" target="2nOXhg0twaqO6Eg3gHm--15">
          <mxGeometry relative="1" as="geometry" />
        </mxCell>
        <mxCell id="2nOXhg0twaqO6Eg3gHm--11" value="展示审核按钮" style="whiteSpace=wrap;html=1;strokeWidth=2;" vertex="1" parent="WIyWlLk6GJQsqaUBKTNV-1">
          <mxGeometry x="330" y="370" width="120" height="60" as="geometry" />
        </mxCell>
        <mxCell id="2nOXhg0twaqO6Eg3gHm--26" value="user" style="edgeStyle=orthogonalEdgeStyle;rounded=0;orthogonalLoop=1;jettySize=auto;html=1;" edge="1" parent="WIyWlLk6GJQsqaUBKTNV-1" source="2nOXhg0twaqO6Eg3gHm--15">
          <mxGeometry relative="1" as="geometry">
            <mxPoint x="560" y="520" as="targetPoint" />
          </mxGeometry>
        </mxCell>
        <mxCell id="2nOXhg0twaqO6Eg3gHm--29" value="role" style="edgeStyle=orthogonalEdgeStyle;rounded=0;orthogonalLoop=1;jettySize=auto;html=1;" edge="1" parent="WIyWlLk6GJQsqaUBKTNV-1" source="2nOXhg0twaqO6Eg3gHm--15">
          <mxGeometry relative="1" as="geometry">
            <mxPoint x="230" y="520" as="targetPoint" />
          </mxGeometry>
        </mxCell>
        <mxCell id="2nOXhg0twaqO6Eg3gHm--15" value="发货仓库维护的审批人类型" style="rhombus;whiteSpace=wrap;html=1;strokeWidth=2;" vertex="1" parent="WIyWlLk6GJQsqaUBKTNV-1">
          <mxGeometry x="325" y="470" width="130" height="100" as="geometry" />
        </mxCell>
        <mxCell id="2nOXhg0twaqO6Eg3gHm--18" value="yes" style="edgeStyle=orthogonalEdgeStyle;rounded=0;orthogonalLoop=1;jettySize=auto;html=1;" edge="1" parent="WIyWlLk6GJQsqaUBKTNV-1" source="2nOXhg0twaqO6Eg3gHm--17" target="2nOXhg0twaqO6Eg3gHm--4">
          <mxGeometry relative="1" as="geometry" />
        </mxCell>
        <mxCell id="2nOXhg0twaqO6Eg3gHm--21" value="" style="edgeStyle=orthogonalEdgeStyle;rounded=0;orthogonalLoop=1;jettySize=auto;html=1;" edge="1" parent="WIyWlLk6GJQsqaUBKTNV-1" source="2nOXhg0twaqO6Eg3gHm--17" target="2nOXhg0twaqO6Eg3gHm--20">
          <mxGeometry relative="1" as="geometry" />
        </mxCell>
        <mxCell id="2nOXhg0twaqO6Eg3gHm--22" value="no" style="edgeLabel;html=1;align=center;verticalAlign=middle;resizable=0;points=[];" vertex="1" connectable="0" parent="2nOXhg0twaqO6Eg3gHm--21">
          <mxGeometry x="-0.2314" y="1" relative="1" as="geometry">
            <mxPoint as="offset" />
          </mxGeometry>
        </mxCell>
        <mxCell id="2nOXhg0twaqO6Eg3gHm--17" value="当前是否三审" style="rhombus;whiteSpace=wrap;html=1;strokeWidth=2;" vertex="1" parent="WIyWlLk6GJQsqaUBKTNV-1">
          <mxGeometry x="325" y="90" width="130" height="100" as="geometry" />
        </mxCell>
        <mxCell id="2nOXhg0twaqO6Eg3gHm--20" value="do nothing" style="whiteSpace=wrap;html=1;strokeWidth=2;" vertex="1" parent="WIyWlLk6GJQsqaUBKTNV-1">
          <mxGeometry x="560" y="110" width="120" height="60" as="geometry" />
        </mxCell>
        <mxCell id="2nOXhg0twaqO6Eg3gHm--34" value="no" style="edgeStyle=orthogonalEdgeStyle;rounded=0;orthogonalLoop=1;jettySize=auto;html=1;" edge="1" parent="WIyWlLk6GJQsqaUBKTNV-1" source="2nOXhg0twaqO6Eg3gHm--31" target="2nOXhg0twaqO6Eg3gHm--33">
          <mxGeometry relative="1" as="geometry" />
        </mxCell>
        <mxCell id="2nOXhg0twaqO6Eg3gHm--41" style="edgeStyle=orthogonalEdgeStyle;rounded=0;orthogonalLoop=1;jettySize=auto;html=1;entryX=0;entryY=0.5;entryDx=0;entryDy=0;" edge="1" parent="WIyWlLk6GJQsqaUBKTNV-1" source="2nOXhg0twaqO6Eg3gHm--31" target="2nOXhg0twaqO6Eg3gHm--37">
          <mxGeometry relative="1" as="geometry">
            <Array as="points">
              <mxPoint x="165" y="740" />
            </Array>
          </mxGeometry>
        </mxCell>
        <mxCell id="2nOXhg0twaqO6Eg3gHm--43" value="yes" style="edgeLabel;html=1;align=center;verticalAlign=middle;resizable=0;points=[];" vertex="1" connectable="0" parent="2nOXhg0twaqO6Eg3gHm--41">
          <mxGeometry x="-0.5801" relative="1" as="geometry">
            <mxPoint as="offset" />
          </mxGeometry>
        </mxCell>
        <mxCell id="2nOXhg0twaqO6Eg3gHm--31" value="当前用户是否属于仓库维护的角色" style="rhombus;whiteSpace=wrap;html=1;strokeWidth=2;" vertex="1" parent="WIyWlLk6GJQsqaUBKTNV-1">
          <mxGeometry x="100" y="470" width="130" height="100" as="geometry" />
        </mxCell>
        <mxCell id="2nOXhg0twaqO6Eg3gHm--36" value="no" style="edgeStyle=orthogonalEdgeStyle;rounded=0;orthogonalLoop=1;jettySize=auto;html=1;" edge="1" parent="WIyWlLk6GJQsqaUBKTNV-1" source="2nOXhg0twaqO6Eg3gHm--32" target="2nOXhg0twaqO6Eg3gHm--35">
          <mxGeometry relative="1" as="geometry" />
        </mxCell>
        <mxCell id="2nOXhg0twaqO6Eg3gHm--40" style="edgeStyle=orthogonalEdgeStyle;rounded=0;orthogonalLoop=1;jettySize=auto;html=1;entryX=1;entryY=0.5;entryDx=0;entryDy=0;" edge="1" parent="WIyWlLk6GJQsqaUBKTNV-1" source="2nOXhg0twaqO6Eg3gHm--32" target="2nOXhg0twaqO6Eg3gHm--37">
          <mxGeometry relative="1" as="geometry">
            <Array as="points">
              <mxPoint x="620" y="740" />
            </Array>
          </mxGeometry>
        </mxCell>
        <mxCell id="2nOXhg0twaqO6Eg3gHm--42" value="yes" style="edgeLabel;html=1;align=center;verticalAlign=middle;resizable=0;points=[];" vertex="1" connectable="0" parent="2nOXhg0twaqO6Eg3gHm--40">
          <mxGeometry x="-0.5569" relative="1" as="geometry">
            <mxPoint as="offset" />
          </mxGeometry>
        </mxCell>
        <mxCell id="2nOXhg0twaqO6Eg3gHm--32" value="当前用户是否存在仓库维护的用户" style="rhombus;whiteSpace=wrap;html=1;strokeWidth=2;" vertex="1" parent="WIyWlLk6GJQsqaUBKTNV-1">
          <mxGeometry x="555" y="470" width="130" height="100" as="geometry" />
        </mxCell>
        <mxCell id="2nOXhg0twaqO6Eg3gHm--33" value="弹出提示" style="whiteSpace=wrap;html=1;strokeWidth=2;" vertex="1" parent="WIyWlLk6GJQsqaUBKTNV-1">
          <mxGeometry x="-105" y="490" width="120" height="60" as="geometry" />
        </mxCell>
        <mxCell id="2nOXhg0twaqO6Eg3gHm--35" value="弹出提示" style="whiteSpace=wrap;html=1;strokeWidth=2;" vertex="1" parent="WIyWlLk6GJQsqaUBKTNV-1">
          <mxGeometry x="775" y="490" width="120" height="60" as="geometry" />
        </mxCell>
        <mxCell id="2nOXhg0twaqO6Eg3gHm--37" value="进入三审" style="whiteSpace=wrap;html=1;strokeWidth=2;" vertex="1" parent="WIyWlLk6GJQsqaUBKTNV-1">
          <mxGeometry x="330" y="710" width="120" height="60" as="geometry" />
        </mxCell>
      </root>
    </mxGraphModel>
  </diagram>
</mxfile>
